<svg width="24" height="24" viewBox="0 0 24 24" fill="none" xmlns="http://www.w3.org/2000/svg">
<g clip-path="url(#clip0_8_201)">
<path d="M13.604 8.4H10.199V12H13.604C14.0814 12 14.5392 11.8104 14.8768 11.4728C15.2144 11.1352 15.404 10.6774 15.404 10.2C15.404 9.72261 15.2144 9.26477 14.8768 8.92721C14.5392 8.58964 14.0814 8.4 13.604 8.4ZM12 0C5.372 0 0 5.372 0 12C0 18.628 5.372 24 12 24C18.628 24 24 18.628 24 12C24 5.372 18.628 0 12 0ZM13.604 14.4H10.199V18H7.801V6H13.605C14.7189 6.00013 15.7871 6.44276 16.5747 7.2305C17.3623 8.01825 17.8046 9.08659 17.8045 10.2005C17.8044 11.3144 17.3617 12.3826 16.574 13.1702C15.7862 13.9578 14.7179 14.4001 13.604 14.4Z" fill="currentColor"/>
</g>
<defs>
<clipPath id="clip0_8_201">
<rect width="24" height="24" fill="white"/>
</clipPath>
</defs>
</svg>
