<svg width="178" height="128" viewBox="0 0 178 128" fill="none" xmlns="http://www.w3.org/2000/svg">
<g filter="url(#filter0_d_2231_2585)">
<path d="M27 30C27 28.3431 28.3431 27 30 27H114C134.435 27 151 43.5655 151 64V64C151 84.4345 134.435 101 114 101H63C43.1178 101 27 84.8822 27 65V30Z" fill="#0540F2"/>
<path d="M114 25.5C135.263 25.5 152.5 42.737 152.5 64C152.5 85.263 135.263 102.5 114 102.5H63C42.2893 102.5 25.5 85.7107 25.5 65V30C25.5 27.5147 27.5147 25.5 30 25.5H114Z" stroke="#163DB3" stroke-width="3"/>
<path d="M65.826 77V51.224H70.038L78.48 72.446H78.57L87.03 51.224H91.26V77H88.29V59.972L88.416 55.724H88.326L79.74 77H77.31L68.76 55.76H68.67L68.796 60.008V77H65.826ZM104.554 77.54C101.89 77.54 99.6881 76.622 97.9481 74.786C96.2081 72.95 95.3381 70.604 95.3381 67.748C95.3381 64.952 96.1901 62.636 97.8941 60.8C99.6101 58.952 101.758 58.028 104.338 58.028C106.99 58.028 109.12 58.832 110.728 60.44C112.336 62.036 113.14 64.034 113.14 66.434V68.36H97.0661V65.876H110.008C109.936 64.412 109.39 63.194 108.37 62.222C107.35 61.238 106.006 60.746 104.338 60.746C102.574 60.746 101.128 61.388 100 62.672C98.8841 63.956 98.3261 65.648 98.3261 67.748C98.3261 69.884 98.9381 71.594 100.162 72.878C101.398 74.162 102.91 74.804 104.698 74.804C105.562 74.804 106.3 74.69 106.912 74.462C107.524 74.222 108.076 73.886 108.568 73.454C109.072 73.022 109.624 72.338 110.224 71.402L112.762 72.626C112.114 73.934 111.394 74.918 110.602 75.578C109.81 76.226 108.934 76.712 107.974 77.036C107.026 77.372 105.886 77.54 104.554 77.54Z" fill="white"/>
</g>
<defs>
<filter id="filter0_d_2231_2585" x="0" y="0" width="178" height="128" filterUnits="userSpaceOnUse" color-interpolation-filters="sRGB">
<feFlood flood-opacity="0" result="BackgroundImageFix"/>
<feColorMatrix in="SourceAlpha" type="matrix" values="0 0 0 0 0 0 0 0 0 0 0 0 0 0 0 0 0 0 127 0" result="hardAlpha"/>
<feOffset/>
<feGaussianBlur stdDeviation="12"/>
<feComposite in2="hardAlpha" operator="out"/>
<feColorMatrix type="matrix" values="0 0 0 0 0.0196078 0 0 0 0 0.25098 0 0 0 0 0.94902 0 0 0 0.25 0"/>
<feBlend mode="normal" in2="BackgroundImageFix" result="effect1_dropShadow_2231_2585"/>
<feBlend mode="normal" in="SourceGraphic" in2="effect1_dropShadow_2231_2585" result="shape"/>
</filter>
</defs>
</svg>
