<svg width="24" height="24" viewBox="0 0 24 24" fill="none" xmlns="http://www.w3.org/2000/svg">
<path d="M12.001 22C6.47798 22 2.00098 17.523 2.00098 12C2.00098 6.477 6.47798 2 12.001 2C17.524 2 22.001 6.477 22.001 12C22.001 17.523 17.524 22 12.001 22ZM13.335 12H10.5V9H13.334C13.7318 9 14.1133 9.15804 14.3946 9.43934C14.6759 9.72064 14.834 10.1022 14.834 10.5C14.834 10.8978 14.6759 11.2794 14.3946 11.5607C14.1133 11.842 13.7328 12 13.335 12ZM13.334 7H8.49998V17H10.5V14H13.334C14.2622 14 15.1525 13.6313 15.8089 12.9749C16.4652 12.3185 16.834 11.4283 16.834 10.5C16.834 9.57174 16.4652 8.6815 15.8089 8.02513C15.1525 7.36875 14.2622 7 13.334 7Z" fill="#5E5E5E"/>
</svg>
