<svg width="24" height="24" viewBox="0 0 24 24" fill="none" xmlns="http://www.w3.org/2000/svg">
<path fill-rule="evenodd" clip-rule="evenodd" d="M9.1719 8.6659H13.2573V10.7009C13.8458 9.5305 15.355 8.4789 17.6221 8.4789C21.9682 8.4789 23 10.8087 23 15.0833V23H18.6V16.0568C18.6 13.6225 18.0115 12.2497 16.5133 12.2497C14.4354 12.2497 13.5719 13.7292 13.5719 16.0557V23H9.1719V8.6659ZM1.627 22.813H6.027V8.4789H1.627V22.813ZM6.6573 3.805C6.65746 4.1738 6.58432 4.53896 6.44213 4.87925C6.29993 5.21953 6.09152 5.52817 5.829 5.7872C5.5657 6.04913 5.25338 6.25661 4.90987 6.39779C4.56635 6.53897 4.19839 6.61108 3.827 6.61C3.07856 6.60832 2.36061 6.31332 1.8272 5.7883C1.56573 5.52831 1.35809 5.21932 1.21615 4.87901C1.07421 4.53869 1.00076 4.17373 1 3.805C1 3.0603 1.297 2.3475 1.8283 1.8217C2.36037 1.29467 3.07919 0.999313 3.8281 1C4.5783 1 5.2977 1.2959 5.829 1.8217C6.3603 2.3475 6.6573 3.0603 6.6573 3.805Z" fill="white"/>
</svg>
