<svg width="23" height="23" viewBox="0 0 23 23" fill="none" xmlns="http://www.w3.org/2000/svg">
<path d="M7.23756 1.85559H15.0309C17.9998 1.85559 20.412 4.26781 20.412 7.2367V15.03C20.412 16.4572 19.8451 17.8259 18.8359 18.8351C17.8268 19.8442 16.458 20.4111 15.0309 20.4111H7.23756C4.26867 20.4111 1.85645 17.9989 1.85645 15.03V7.2367C1.85645 5.80954 2.42338 4.44084 3.43254 3.43168C4.44169 2.42253 5.8104 1.85559 7.23756 1.85559ZM7.052 3.71115C6.16618 3.71115 5.31664 4.06304 4.69026 4.68941C4.06389 5.31578 3.712 6.16532 3.712 7.05115V15.2156C3.712 17.0619 5.20572 18.5556 7.052 18.5556H15.2164C16.1023 18.5556 16.9518 18.2037 17.5782 17.5773C18.2046 16.951 18.5564 16.1014 18.5564 15.2156V7.05115C18.5564 5.20487 17.0627 3.71115 15.2164 3.71115H7.052ZM16.0051 5.10281C16.3126 5.10281 16.6076 5.225 16.8251 5.44249C17.0426 5.65998 17.1648 5.95496 17.1648 6.26254C17.1648 6.57011 17.0426 6.86509 16.8251 7.08258C16.6076 7.30007 16.3126 7.42226 16.0051 7.42226C15.6975 7.42226 15.4025 7.30007 15.185 7.08258C14.9675 6.86509 14.8453 6.57011 14.8453 6.26254C14.8453 5.95496 14.9675 5.65998 15.185 5.44249C15.4025 5.225 15.6975 5.10281 16.0051 5.10281ZM11.1342 6.49448C12.3645 6.49448 13.5445 6.98322 14.4144 7.85318C15.2844 8.72314 15.7731 9.90306 15.7731 11.1334C15.7731 12.3637 15.2844 13.5436 14.4144 14.4136C13.5445 15.2835 12.3645 15.7723 11.1342 15.7723C9.90391 15.7723 8.72399 15.2835 7.85403 14.4136C6.98407 13.5436 6.49533 12.3637 6.49533 11.1334C6.49533 9.90306 6.98407 8.72314 7.85403 7.85318C8.72399 6.98322 9.90391 6.49448 11.1342 6.49448ZM11.1342 8.35004C10.396 8.35004 9.68809 8.64328 9.16611 9.16525C8.64413 9.68723 8.35089 10.3952 8.35089 11.1334C8.35089 11.8716 8.64413 12.5795 9.16611 13.1015C9.68809 13.6235 10.396 13.9167 11.1342 13.9167C11.8724 13.9167 12.5804 13.6235 13.1023 13.1015C13.6243 12.5795 13.9176 11.8716 13.9176 11.1334C13.9176 10.3952 13.6243 9.68723 13.1023 9.16525C12.5804 8.64328 11.8724 8.35004 11.1342 8.35004Z" fill="#5E5E5E"/>
</svg>
