<svg width="23" height="23" viewBox="0 0 23 23" fill="none" xmlns="http://www.w3.org/2000/svg">
<path d="M17.6276 2.78333C18.1198 2.78333 18.5917 2.97882 18.9397 3.3268C19.2877 3.67479 19.4832 4.14676 19.4832 4.63888V17.6278C19.4832 18.1199 19.2877 18.5919 18.9397 18.9398C18.5917 19.2878 18.1198 19.4833 17.6276 19.4833H4.63876C4.14663 19.4833 3.67467 19.2878 3.32668 18.9398C2.9787 18.5919 2.7832 18.1199 2.7832 17.6278V4.63888C2.7832 4.14676 2.9787 3.67479 3.32668 3.3268C3.67467 2.97882 4.14663 2.78333 4.63876 2.78333H17.6276ZM17.1638 17.1639V12.2467C17.1638 11.4445 16.8451 10.6752 16.2779 10.108C15.7107 9.54076 14.9414 9.2221 14.1392 9.2221C13.3506 9.2221 12.4321 9.70455 11.9868 10.4282V9.39838H9.39826V17.1639H11.9868V12.5899C11.9868 11.8755 12.562 11.291 13.2764 11.291C13.6209 11.291 13.9512 11.4279 14.1948 11.6715C14.4384 11.9151 14.5753 12.2454 14.5753 12.5899V17.1639H17.1638ZM6.38298 7.94177C6.79637 7.94177 7.19282 7.77755 7.48513 7.48525C7.77743 7.19294 7.94165 6.79649 7.94165 6.3831C7.94165 5.52027 7.24581 4.81516 6.38298 4.81516C5.96714 4.81516 5.56832 4.98035 5.27428 5.2744C4.98023 5.56845 4.81504 5.96726 4.81504 6.3831C4.81504 7.24594 5.52015 7.94177 6.38298 7.94177ZM7.67259 17.1639V9.39838H5.10265V17.1639H7.67259Z" fill="#5E5E5E"/>
</svg>
