<svg width="24" height="24" viewBox="0 0 24 24" fill="none" xmlns="http://www.w3.org/2000/svg">
<path d="M9.99394 8.81175C9.58706 8.81175 9.29985 8.84759 9.14428 8.88343V11.6073C9.32379 11.6551 9.56313 11.6671 9.8623 11.6671C10.9633 11.6671 11.6334 11.1295 11.6334 10.1857C11.6334 9.28963 11.0111 8.81175 9.99394 8.81175Z" fill="#5E5E5E"/>
<path fill-rule="evenodd" clip-rule="evenodd" d="M6.31029 2.31367C10.0919 1.89544 13.9082 1.89544 17.6898 2.31367C19.7557 2.54392 21.4213 4.16762 21.6639 6.23771C22.112 10.0658 22.112 13.933 21.6639 17.7611C21.4213 19.8312 19.7557 21.4549 17.6909 21.6863C13.9089 22.1046 10.0922 22.1046 6.31029 21.6863C4.24436 21.4549 2.57878 19.8312 2.33618 17.7622C1.88794 13.9338 1.88794 10.0662 2.33618 6.23771C2.57878 4.16762 4.24436 2.54392 6.31029 2.31367ZM9.14428 15.8007H7.68432V7.85599C8.21086 7.76041 8.94084 7.68873 9.9341 7.68873C11.0111 7.68873 11.8009 7.91572 12.3155 8.34582C12.7942 8.74007 13.1053 9.37326 13.1053 10.1259C13.1053 10.8905 12.866 11.5237 12.4113 11.9538C11.8238 12.5392 10.9034 12.814 9.8623 12.814C9.58706 12.814 9.33575 12.802 9.14428 12.7662V15.8007ZM15.1615 15.8007H13.6895V11.8582C13.6895 11.0697 13.6787 10.5082 13.6417 9.98256H14.9221L14.97 11.0936H15.0179C15.3051 10.2693 15.9872 9.85114 16.6095 9.85114C16.7531 9.85114 16.8379 9.86309 16.9576 9.88698V11.2728C16.8156 11.2426 16.6709 11.2265 16.5257 11.225C15.8197 11.225 15.341 11.679 15.2093 12.3361C15.1795 12.4857 15.1635 12.6376 15.1615 12.7901V15.8007Z" fill="#5E5E5E"/>
</svg>
